<svg xmlns="http://www.w3.org/2000/svg" viewBox="0 0 360.08 425.51"><defs><style>.cls-1{fill:#ef4147;}</style></defs><g id="Layer_2" data-name="Layer 2"><g id="Layer_1-2" data-name="Layer 1"><path class="cls-1" d="M229.45,265.38a30.26,30.26,0,0,1,12.36,2.51,30.93,30.93,0,0,1,10.08,6.91,32.67,32.67,0,0,1,6.69,10.44,32.16,32.16,0,0,1,0,24.48,30.4,30.4,0,0,1-16.92,16.92,31.83,31.83,0,0,1-12.23,2.42H99.15v-51H65.22V363H229.45a66.07,66.07,0,0,0,25-4.92A64.3,64.3,0,0,0,290,322.49a66.15,66.15,0,0,0,0-50,67.11,67.11,0,0,0-13.63-21.15,65.24,65.24,0,0,0-46.94-19.88H64c-53.19,0-63.31-20.69-64-22.15H0V425.51H229.14a127.06,127.06,0,0,0,50.73-10.42,131.9,131.9,0,0,0,69.79-69.78,127.22,127.22,0,0,0,10.42-50.74c0-37-13.32-68.59-39.77-94.18a110.1,110.1,0,0,0-12.44-9.69c9.32-18.07,14-38.09,14-59.76a127.2,127.2,0,0,0-10.42-50.75,131.1,131.1,0,0,0-70.14-69.8A127.81,127.81,0,0,0,191,0H0V144.34s-2.94,55.13,66.2,55.13H229.88c38.95,0,67,25.44,67,25.48,19.69,19,29.25,41.82,29.25,69.62a93.47,93.47,0,0,1-7.63,37.27,98,98,0,0,1-52.1,52.1,93.23,93.23,0,0,1-37.27,7.64H34V265.32Zm48.45-90.55a134.85,134.85,0,0,0-35.3-8.63,65.13,65.13,0,0,0,5-9.69,67.83,67.83,0,0,0,4.9-25.56,66.47,66.47,0,0,0-4.92-25A64.28,64.28,0,0,0,212,70.38a66.06,66.06,0,0,0-25-4.92H65.19v99.92H99.12v-66H187a32.13,32.13,0,0,1,12.21,2.41,30.38,30.38,0,0,1,16.92,16.89,32.39,32.39,0,0,1,2.42,11.78V133a33.46,33.46,0,0,1-2.41,12.79A30.37,30.37,0,0,1,209.43,156a33.83,33.83,0,0,1-10.6,7.18,29.31,29.31,0,0,1-9.45,2.4l-90.26,0H65.18c-15.31,0-31.23-6.33-31.23-38.67V33.93H191A94,94,0,0,1,228,41.6a97.19,97.19,0,0,1,52.3,52.06A93.39,93.39,0,0,1,288,130.94C288,147.16,284.66,161.64,277.9,174.83Z"/></g></g></svg>