<svg xmlns="http://www.w3.org/2000/svg" viewBox="0 0 1746.87 425.51"><defs><style>.cls-1{fill:#ef4147;}.cls-2{fill:#13324c;}</style></defs><g id="Layer_2" data-name="Layer 2"><g id="Layer_1-2" data-name="Layer 1"><path class="cls-1" d="M229.45,265.38a30.26,30.26,0,0,1,12.36,2.51,30.93,30.93,0,0,1,10.08,6.91,32.67,32.67,0,0,1,6.69,10.44,32.16,32.16,0,0,1,0,24.48,30.4,30.4,0,0,1-16.92,16.92,31.83,31.83,0,0,1-12.23,2.42H99.15v-51H65.22V363H229.45a66.07,66.07,0,0,0,25-4.92A64.3,64.3,0,0,0,290,322.49a66.15,66.15,0,0,0,0-50,67.11,67.11,0,0,0-13.63-21.15,65.24,65.24,0,0,0-46.94-19.88H64c-53.19,0-63.31-20.69-64-22.15H0V425.51H229.14a127.06,127.06,0,0,0,50.73-10.42,131.9,131.9,0,0,0,69.79-69.78,127.22,127.22,0,0,0,10.42-50.74c0-37-13.32-68.59-39.77-94.18a110.1,110.1,0,0,0-12.44-9.69c9.32-18.07,14-38.09,14-59.76a127.2,127.2,0,0,0-10.42-50.75,131.1,131.1,0,0,0-70.14-69.8A127.81,127.81,0,0,0,191,0H0V144.34s-2.94,55.13,66.2,55.13H229.88c38.95,0,67,25.44,67,25.48,19.69,19,29.25,41.82,29.25,69.62a93.47,93.47,0,0,1-7.63,37.27,98,98,0,0,1-52.1,52.1,93.23,93.23,0,0,1-37.27,7.64H34V265.32Zm48.45-90.55a134.85,134.85,0,0,0-35.3-8.63,65.13,65.13,0,0,0,5-9.69,67.83,67.83,0,0,0,4.9-25.56,66.47,66.47,0,0,0-4.92-25A64.28,64.28,0,0,0,212,70.38a66.06,66.06,0,0,0-25-4.92H65.19v99.92H99.12v-66H187a32.13,32.13,0,0,1,12.21,2.41,30.38,30.38,0,0,1,16.92,16.89,32.39,32.39,0,0,1,2.42,11.78V133a33.46,33.46,0,0,1-2.41,12.79A30.37,30.37,0,0,1,209.43,156a33.83,33.83,0,0,1-10.6,7.18,29.31,29.31,0,0,1-9.45,2.4l-90.26,0H65.18c-15.31,0-31.23-6.33-31.23-38.67V33.93H191A94,94,0,0,1,228,41.6a97.19,97.19,0,0,1,52.3,52.06A93.39,93.39,0,0,1,288,130.94C288,147.16,284.66,161.64,277.9,174.83Z"/><path class="cls-2" d="M585.41,178.75q8.08,10.27,8.09,26,0,21-15.83,32.34T531.59,248.4H454.43V86.7H527q27.72,0,42.85,11.08T585,128.51q0,12.7-5.89,21.94a38.39,38.39,0,0,1-15.83,14.09Q577.33,168.47,585.41,178.75ZM477.53,105.41v51.74h47.36q17.79,0,27.37-6.58t9.59-19.29q0-12.7-9.59-19.29t-27.37-6.58Zm82.7,117.81q9.93-6.47,9.93-20.33,0-27-39.5-27H477.53v53.82h53.13Q550.3,229.68,560.23,223.22Z"/><path class="cls-2" d="M674.34,239.5a79.38,79.38,0,0,1-30.84-29.68,81.46,81.46,0,0,1-11.2-42.27,81.47,81.47,0,0,1,11.2-42.28,79.45,79.45,0,0,1,30.84-29.68Q694,84.85,718.46,84.85q24.25,0,43.89,10.74a78.9,78.9,0,0,1,30.73,29.57q11.08,18.83,11.08,42.39t-11.08,42.38a78.83,78.83,0,0,1-30.73,29.57q-19.64,10.74-43.89,10.74Q694,250.24,674.34,239.5Zm76.12-17.9a59.26,59.26,0,0,0,22.4-22.29,62.35,62.35,0,0,0,8.2-31.76,62.36,62.36,0,0,0-8.2-31.77,59.26,59.26,0,0,0-22.4-22.29,63.54,63.54,0,0,0-32-8.08,64.77,64.77,0,0,0-32.22,8.08,58.85,58.85,0,0,0-22.64,22.29,62.36,62.36,0,0,0-8.2,31.77,62.35,62.35,0,0,0,8.2,31.76,58.85,58.85,0,0,0,22.64,22.29,64.77,64.77,0,0,0,32.22,8.08A63.54,63.54,0,0,0,750.46,221.6Z"/><path class="cls-2" d="M963.78,248.4,928.9,198.73q-6.46.47-10.16.46h-40V248.4h-23.1V86.7h63.06q31.41,0,49.43,15t18,41.35q0,18.7-9.24,31.88t-26.33,19.17L989,248.4Zm-12.24-78.31q11.55-9.48,11.55-27t-11.55-26.91q-11.55-9.36-33.49-9.36H878.78v72.77h39.27Q940,179.56,951.54,170.09Z"/><path class="cls-2" d="M1157.13,228.3v20.1H1039.78V86.7H1153.9v20.09h-91v49.67H1144v19.63h-81.08V228.3Z"/><path class="cls-2" d="M1313.75,208h-85.93L1210,248.4h-23.79l73.22-161.7h22.87l73.46,161.7h-24.26Zm-8.09-18.48-34.88-79.23-34.88,79.23Z"/><path class="cls-2" d="M1396,86.7h23.1V228.3h87.55v20.1H1396Z"/><path class="cls-2" d="M1549.36,86.7h23.11V248.4h-23.11Z"/><path class="cls-2" d="M1649,244.58q-17-5.66-26.68-14.66l8.55-18q9.24,8.31,23.68,13.51a86.81,86.81,0,0,0,29.68,5.2q20.1,0,30-6.82t9.93-18.13q0-8.31-5.43-13.51a36.26,36.26,0,0,0-13.39-8q-8-2.77-22.53-6.24a230.72,230.72,0,0,1-29.45-8.78,48.62,48.62,0,0,1-19.17-13.51q-8-9.12-8-24.6a41.63,41.63,0,0,1,6.81-23.33q6.81-10.39,20.68-16.64t34.41-6.23a109.13,109.13,0,0,1,28.19,3.69,75.08,75.08,0,0,1,23.79,10.63l-7.62,18.48a84,84,0,0,0-21.72-9.82,81.13,81.13,0,0,0-22.64-3.35q-19.64,0-29.45,7.16t-9.81,18.48a17.67,17.67,0,0,0,5.54,13.52,38.53,38.53,0,0,0,13.74,8.08,212.1,212.1,0,0,0,22.3,6.12,227.39,227.39,0,0,1,29.33,8.78A49.39,49.39,0,0,1,1738.9,180q8,9,8,24.25a41.29,41.29,0,0,1-6.93,23.22q-6.93,10.51-21,16.63t-34.65,6.12A110.47,110.47,0,0,1,1649,244.58Z"/><path class="cls-2" d="M469.29,348.4q-7.64,0-11.24-3.6t-3.6-11.24v-9q0-7.68,3.6-11.26t11.24-3.58h16.36V295.16a2.52,2.52,0,1,1,5,0v50.72a2.52,2.52,0,1,1-5,0V343.4a11,11,0,0,1-5,3.74,23.08,23.08,0,0,1-8.3,1.26Zm0-5h3a22.39,22.39,0,0,0,9.62-1.78q3.71-1.79,3.7-5.34V314.72H469.29q-5.52,0-7.66,2.14c-1.43,1.42-2.14,4-2.14,7.66v9q0,5.52,2.14,7.66C463.06,342.64,465.61,343.36,469.29,343.36Z"/><path class="cls-2" d="M513.53,331v2.6q0,5.48,2.14,7.6t7.66,2.12h6.56c3.17,0,5.48-.38,6.92-1.12a5.16,5.16,0,0,0,2.68-3.88,3.71,3.71,0,0,1,.88-1.8,2.44,2.44,0,0,1,1.8-.6,2.57,2.57,0,0,1,1.9.66,2.14,2.14,0,0,1,.46,1.94,10,10,0,0,1-4.26,7.42q-3.62,2.41-10.38,2.42h-6.56q-7.64,0-11.24-3.6t-3.6-11.16v-9.12q0-7.77,3.6-11.34t11.24-3.5h6.56q7.68,0,11.26,3.58t3.58,11.26v4a2.23,2.23,0,0,1-2.52,2.52Zm9.8-16.32q-5.52-.09-7.66,2t-2.14,7.76V326h26.16v-1.48q0-5.56-2.12-7.68c-1.41-1.42-4-2.12-7.68-2.12Z"/><path class="cls-2" d="M576.65,346.52a2.9,2.9,0,0,1-1.18,1.46,3.63,3.63,0,0,1-1.82.42,2.91,2.91,0,0,1-2.84-2l-14.44-33.2c-.67-1.6-.21-2.7,1.36-3.28s2.61-.26,3.28,1.32l14.12,32.44h-2.76l15.16-32.52a2.66,2.66,0,0,1,1.38-1.42,2.44,2.44,0,0,1,2,.18,2.25,2.25,0,0,1,1.24,3.36Z"/><path class="cls-2" d="M608.89,331v2.6q0,5.48,2.14,7.6t7.66,2.12h6.56c3.17,0,5.48-.38,6.92-1.12a5.16,5.16,0,0,0,2.68-3.88,3.71,3.71,0,0,1,.88-1.8,2.44,2.44,0,0,1,1.8-.6,2.57,2.57,0,0,1,1.9.66,2.14,2.14,0,0,1,.46,1.94,10,10,0,0,1-4.26,7.42q-3.61,2.41-10.38,2.42h-6.56q-7.63,0-11.24-3.6t-3.6-11.16v-9.12q0-7.77,3.6-11.34t11.24-3.5h6.56q7.68,0,11.26,3.58t3.58,11.26v4a2.23,2.23,0,0,1-2.52,2.52Zm9.8-16.32q-5.52-.09-7.66,2t-2.14,7.76V326h26.16v-1.48q0-5.56-2.12-7.68c-1.41-1.42-4-2.12-7.68-2.12Z"/><path class="cls-2" d="M670,348.4q-5.81,0-8.58-2.78c-1.85-1.86-2.78-4.7-2.78-8.54V295.16a2.52,2.52,0,0,1,5,0v41.92c0,2.42.44,4.08,1.32,5s2.53,1.32,5,1.32c1.73,0,2.6.84,2.6,2.52S671.77,348.4,670,348.4Z"/><path class="cls-2" d="M699.61,348.4q-7.64,0-11.24-3.6t-3.6-11.16v-9.12q0-7.72,3.6-11.3t11.24-3.54h6.56q7.68,0,11.26,3.58T721,324.52v9q0,7.63-3.58,11.24t-11.26,3.6Zm-9.8-14.76q0,5.48,2.14,7.6t7.66,2.12h6.56c3.71,0,6.27-.72,7.68-2.14s2.12-4,2.12-7.66v-9q0-5.56-2.12-7.68c-1.41-1.42-4-2.12-7.68-2.12h-6.56a14.88,14.88,0,0,0-5.82.86,5.53,5.53,0,0,0-3.06,3,15.34,15.34,0,0,0-.92,5.9Z"/><path class="cls-2" d="M742.09,364.4a2.23,2.23,0,0,1-2.52-2.52V312.2a2.52,2.52,0,1,1,5,0v2.68a11.83,11.83,0,0,1,5.22-3.88,21.88,21.88,0,0,1,8.1-1.32h3q7.68,0,11.26,3.58t3.58,11.26v9q0,7.63-3.58,11.24T761,348.4H744.61v13.48A2.23,2.23,0,0,1,742.09,364.4Zm2.52-21H761c3.71,0,6.27-.72,7.68-2.14s2.12-4,2.12-7.66v-9q0-5.56-2.12-7.68c-1.41-1.42-4-2.12-7.68-2.12h-3a21.51,21.51,0,0,0-9.42,1.72,6.49,6.49,0,0,0-3.9,5.36Z"/><path class="cls-2" d="M837.41,309.64q6.84,0,9.78,3.36t2.94,11.16v21.76a2.52,2.52,0,0,1-5,0V324.16q0-5-1.78-7.26t-5.9-2.22h-3.32q-5,0-7.16,2.22t-2.16,7.26v21.76a2.52,2.52,0,1,1-5,0V324.16q0-5-1.78-7.26c-1.19-1.48-3.15-2.22-5.9-2.22h-3.32c-3.34,0-5.72.74-7.16,2.22s-2.16,3.9-2.16,7.26v21.76a2.52,2.52,0,0,1-5,0V312.2a2.52,2.52,0,1,1,5,0v2.68a11.35,11.35,0,0,1,4.34-4,13.56,13.56,0,0,1,6.1-1.22h2.2a15.07,15.07,0,0,1,7.1,1.42,9.54,9.54,0,0,1,4.14,4.66,11.58,11.58,0,0,1,4.36-4.68,13.07,13.07,0,0,1,6.44-1.4Z"/><path class="cls-2" d="M873,331v2.6q0,5.48,2.14,7.6c1.42,1.41,4,2.12,7.66,2.12h6.56c3.17,0,5.48-.38,6.92-1.12a5.16,5.16,0,0,0,2.68-3.88,3.62,3.62,0,0,1,.88-1.8,2.44,2.44,0,0,1,1.8-.6,2.58,2.58,0,0,1,1.9.66,2.14,2.14,0,0,1,.46,1.94,10,10,0,0,1-4.26,7.42q-3.63,2.41-10.38,2.42h-6.56q-7.65,0-11.24-3.6t-3.6-11.16v-9.12q0-7.77,3.6-11.34t11.24-3.5h6.56q7.68,0,11.26,3.58t3.58,11.26v4a2.23,2.23,0,0,1-2.52,2.52Zm9.8-16.32c-3.68-.06-6.24.62-7.66,2s-2.14,4-2.14,7.76V326h26.16v-1.48q0-5.56-2.12-7.68c-1.42-1.42-4-2.12-7.68-2.12Z"/><path class="cls-2" d="M925.25,348.4a2.23,2.23,0,0,1-2.52-2.52V312.2a2.52,2.52,0,0,1,5,0v3q4-5.49,13.32-5.48h2.24q7.68,0,11.26,3.58t3.58,11.26v21.36a2.52,2.52,0,0,1-5,0V324.52c0-3.71-.72-6.27-2.14-7.68s-4-2.12-7.66-2.12h-2.24a21.85,21.85,0,0,0-9.28,1.68,6.52,6.52,0,0,0-4,5.24v24.24A2.23,2.23,0,0,1,925.25,348.4Z"/><path class="cls-2" d="M993.33,348.4q-7.56,0-11.08-3.52t-3.52-11V314.72h-4.48a2.52,2.52,0,1,1,0-5h4.48V302a2.52,2.52,0,0,1,5,0v7.68h9.76a2.52,2.52,0,0,1,0,5h-9.76v19.16q0,5.4,2.08,7.44c1.38,1.36,3.88,2,7.48,2a2.63,2.63,0,0,1,1.94.62,2.58,2.58,0,0,1,.62,1.9A2.25,2.25,0,0,1,993.33,348.4Z"/><path class="cls-2" d="M1052.2,349.24q-8.84,0-12.92-4.08t-4.08-12.92q0-6.53,2.24-10.44a12,12,0,0,1,7-5.48,2.17,2.17,0,0,1,2.08.08,2.37,2.37,0,0,1,1.12,1.76,2.2,2.2,0,0,1-.28,2,4.08,4.08,0,0,1-1.68,1.12,7.4,7.4,0,0,0-4.18,3.7,17,17,0,0,0-1.26,7.3,18.6,18.6,0,0,0,1.12,7.1,6.92,6.92,0,0,0,3.74,3.74,18.6,18.6,0,0,0,7.1,1.12h2.56a18.11,18.11,0,0,0,7.1-1.14,6.93,6.93,0,0,0,3.74-3.76,18.25,18.25,0,0,0,1.12-7.06V328.6a2.52,2.52,0,0,1,5,0v3.64q0,8.79-4.1,12.9t-12.9,4.1ZM1078,345.6c-1.09,1.28-2.28,1.34-3.56.2l-26.67-23.6a32.52,32.52,0,0,1-4.25-4.32,12.85,12.85,0,0,1-2.14-4,15.58,15.58,0,0,1-.61-4.56q0-6.36,3-9.4t9.34-3h2c3.76,0,6.65.78,8.65,2.36s3.19,4,3.59,7.36a2.24,2.24,0,0,1-.51,2,2.64,2.64,0,0,1-1.93.68,2.38,2.38,0,0,1-1.8-.64,4,4,0,0,1-.88-1.84,5.09,5.09,0,0,0-2-3.8,9.59,9.59,0,0,0-5.12-1h-2q-4.15,0-5.74,1.56c-1.05,1-1.57,3-1.57,5.84a10.21,10.21,0,0,0,.41,3.08,8.06,8.06,0,0,0,1.56,2.68,35.94,35.94,0,0,0,3.34,3.32L1077.85,342A2.24,2.24,0,0,1,1078,345.6Z"/><path class="cls-2" d="M1132.2,348.4q-7.64,0-11.24-3.6t-3.6-11.24v-9q0-7.68,3.6-11.26t11.24-3.58h16.36V295.16a2.52,2.52,0,1,1,5,0v50.72a2.52,2.52,0,1,1-5,0V343.4a11,11,0,0,1-5,3.74,23,23,0,0,1-8.3,1.26Zm0-5h3a22.36,22.36,0,0,0,9.62-1.78q3.71-1.79,3.7-5.34V314.72H1132.2q-5.52,0-7.66,2.14c-1.42,1.42-2.14,4-2.14,7.66v9c0,3.68.72,6.23,2.14,7.66S1128.52,343.36,1132.2,343.36Z"/><path class="cls-2" d="M1176.44,331v2.6c0,3.65.72,6.18,2.14,7.6s4,2.12,7.66,2.12h6.56c3.18,0,5.48-.38,6.92-1.12a5.14,5.14,0,0,0,2.68-3.88,3.71,3.71,0,0,1,.88-1.8,2.44,2.44,0,0,1,1.8-.6,2.57,2.57,0,0,1,1.9.66,2.11,2.11,0,0,1,.46,1.94,9.91,9.91,0,0,1-4.26,7.42q-3.62,2.41-10.38,2.42h-6.56q-7.63,0-11.24-3.6t-3.6-11.16v-9.12q0-7.77,3.6-11.34t11.24-3.5h6.56q7.68,0,11.26,3.58t3.58,11.26v4a2.23,2.23,0,0,1-2.52,2.52Zm9.8-16.32q-5.52-.09-7.66,2c-1.42,1.41-2.14,4-2.14,7.76V326h26.16v-1.48c0-3.71-.7-6.27-2.12-7.68s-4-2.12-7.68-2.12Z"/><path class="cls-2" d="M1234.88,348.36q-5,0-7.68-2.1a9.46,9.46,0,0,1-3.36-6.38,2.28,2.28,0,0,1,.54-2,2.62,2.62,0,0,1,1.94-.7,2.35,2.35,0,0,1,1.82.62,3.66,3.66,0,0,1,.82,1.86,4,4,0,0,0,1.76,2.84,8.5,8.5,0,0,0,4.16.8H1248q3.57,0,4.84-1.28c.86-.86,1.28-2.47,1.28-4.84s-.42-4-1.28-4.84-2.46-1.28-4.84-1.28h-12.92c-3.6,0-6.28-.88-8.06-2.64s-2.66-4.44-2.66-8,.88-6.4,2.64-8.14,4.46-2.62,8.08-2.62h12.52q9.21,0,10.4,8a2,2,0,0,1-.46,1.94,2.68,2.68,0,0,1-2,.7,2.35,2.35,0,0,1-1.78-.62,4.06,4.06,0,0,1-.86-1.78,3.42,3.42,0,0,0-1.56-2.48,7.84,7.84,0,0,0-3.76-.68h-12.52c-2.21,0-3.71.38-4.5,1.16s-1.18,2.29-1.18,4.56.4,3.64,1.2,4.44,2.3,1.2,4.48,1.2H1248q5.68,0,8.42,2.74t2.74,8.42q0,5.67-2.74,8.42c-1.82,1.82-4.63,2.74-8.42,2.74Z"/><path class="cls-2" d="M1278.23,302.64c-2.07,0-3.11-1.06-3.11-3.16v-2q0-3.06,3.11-3.06h2q3,0,3,3.06v2c0,2.1-1,3.16-3,3.16Zm1,45.76a2.23,2.23,0,0,1-2.52-2.52V312.2a2.52,2.52,0,0,1,5,0v33.68A2.23,2.23,0,0,1,1279.2,348.4Z"/><path class="cls-2" d="M1311,364.4c-3.17,0-5.61-.66-7.32-2a8.84,8.84,0,0,1-3.16-6,2.3,2.3,0,0,1,.5-2,2.53,2.53,0,0,1,1.94-.7,2.23,2.23,0,0,1,1.76.62,4.13,4.13,0,0,1,.84,1.86,3.39,3.39,0,0,0,1.6,2.48,8.36,8.36,0,0,0,3.84.68h14.88c2.24,0,3.74-.39,4.5-1.16s1.14-2.27,1.14-4.48V343a12.31,12.31,0,0,1-5.24,4,20.88,20.88,0,0,1-8.08,1.38h-3q-7.63,0-11.24-3.6t-3.6-11.16v-9.12q0-7.72,3.58-11.28t11.26-3.56h6.56a15.57,15.57,0,0,1,5.94,1,8.79,8.79,0,0,1,3.86,3V312.2a2.52,2.52,0,0,1,5,0v41.52q0,5.47-2.58,8.08t-8.1,2.6Zm4.16-21h3a22.56,22.56,0,0,0,9.62-1.76c2.47-1.18,3.7-3,3.7-5.36V322c0-2.72-.82-4.62-2.46-5.68s-4.09-1.6-7.34-1.6h-6.56q-5.52,0-7.66,2.08c-1.43,1.38-2.14,4-2.14,7.72v9.12q0,5.43,2.14,7.58C1308.89,342.64,1311.44,343.36,1315.12,343.36Z"/><path class="cls-2" d="M1358.2,348.4a2.23,2.23,0,0,1-2.52-2.52V312.2a2.52,2.52,0,0,1,5,0v3q4-5.49,13.32-5.48h2.24q7.68,0,11.26,3.58t3.58,11.26v21.36a2.52,2.52,0,1,1-5,0V324.52q0-5.56-2.14-7.68c-1.43-1.42-4-2.12-7.66-2.12H1374a21.88,21.88,0,0,0-9.28,1.68,6.54,6.54,0,0,0-4,5.24v24.24A2.23,2.23,0,0,1,1358.2,348.4Z"/><path class="cls-2" d="M1448.08,348.4q-6.36,0-9.4-3t-3-9.4q0-6.4,3-9.44t9.4-3h17.8q-.17-4.92-2.34-6.84t-7.46-1.92h-4.64a19.74,19.74,0,0,0-6.94.9,4.61,4.61,0,0,0-2.86,3.1,4.15,4.15,0,0,1-1,1.74,2.48,2.48,0,0,1-1.74.54,2.65,2.65,0,0,1-1.94-.7,2.05,2.05,0,0,1-.5-1.9,8.86,8.86,0,0,1,4.44-6.64q3.67-2.08,10.52-2.08h4.64q7.68,0,11.26,3.58t3.58,11.26v21.36a2.52,2.52,0,1,1-5,0v-3.24q-4,5.76-13.32,5.76Zm0-5h4.48a25,25,0,0,0,6.42-.76,10.48,10.48,0,0,0,4.64-2.52,8,8,0,0,0,2.26-4.76v-6.8h-17.8c-2.86,0-4.8.52-5.84,1.56s-1.56,3-1.56,5.88.52,4.8,1.56,5.84S1445.22,343.36,1448.08,343.36Z"/><path class="cls-2" d="M1499.4,364.4c-3.18,0-5.62-.66-7.32-2a8.84,8.84,0,0,1-3.16-6,2.3,2.3,0,0,1,.5-2,2.53,2.53,0,0,1,1.94-.7,2.25,2.25,0,0,1,1.76.62,4.13,4.13,0,0,1,.84,1.86,3.39,3.39,0,0,0,1.6,2.48,8.36,8.36,0,0,0,3.84.68h14.88c2.24,0,3.74-.39,4.5-1.16s1.14-2.27,1.14-4.48V343a12.38,12.38,0,0,1-5.24,4,20.88,20.88,0,0,1-8.08,1.38h-3q-7.63,0-11.24-3.6t-3.6-11.16v-9.12q0-7.72,3.58-11.28t11.26-3.56h6.56a15.57,15.57,0,0,1,5.94,1,8.85,8.85,0,0,1,3.86,3V312.2a2.52,2.52,0,0,1,5,0v41.52q0,5.47-2.58,8.08t-8.1,2.6Zm4.16-21h3a22.56,22.56,0,0,0,9.62-1.76c2.46-1.18,3.7-3,3.7-5.36V322c0-2.72-.82-4.62-2.46-5.68s-4.09-1.6-7.34-1.6h-6.56c-3.68,0-6.24.69-7.66,2.08s-2.14,4-2.14,7.72v9.12q0,5.43,2.14,7.58C1497.32,342.64,1499.88,343.36,1503.56,343.36Z"/><path class="cls-2" d="M1547.8,331v2.6q0,5.48,2.14,7.6c1.42,1.41,4,2.12,7.66,2.12h6.56c3.17,0,5.48-.38,6.92-1.12a5.16,5.16,0,0,0,2.68-3.88,3.62,3.62,0,0,1,.88-1.8,2.44,2.44,0,0,1,1.8-.6,2.58,2.58,0,0,1,1.9.66,2.14,2.14,0,0,1,.46,1.94,10,10,0,0,1-4.26,7.42q-3.63,2.41-10.38,2.42h-6.56q-7.65,0-11.24-3.6t-3.6-11.16v-9.12q0-7.77,3.6-11.34t11.24-3.5h6.56q7.68,0,11.26,3.58t3.58,11.26v4a2.23,2.23,0,0,1-2.52,2.52Zm9.8-16.32c-3.68-.06-6.24.62-7.66,2s-2.14,4-2.14,7.76V326H1574v-1.48q0-5.56-2.12-7.68c-1.42-1.42-4-2.12-7.68-2.12Z"/><path class="cls-2" d="M1600.08,348.4a2.23,2.23,0,0,1-2.52-2.52V312.2a2.52,2.52,0,0,1,5,0v3q4-5.49,13.32-5.48h2.24q7.68,0,11.26,3.58t3.58,11.26v21.36a2.52,2.52,0,1,1-5,0V324.52c0-3.71-.72-6.27-2.14-7.68s-4-2.12-7.66-2.12h-2.24a21.85,21.85,0,0,0-9.28,1.68,6.52,6.52,0,0,0-4,5.24v24.24A2.23,2.23,0,0,1,1600.08,348.4Z"/><path class="cls-2" d="M1665.64,348.4q-7.65,0-11.24-3.6t-3.6-11.24v-9.12q0-7.68,3.58-11.26t11.26-3.5h6.56q5.91,0,9.12,2a8.59,8.59,0,0,1,3.92,6.22,2.06,2.06,0,0,1-.46,1.94,2.77,2.77,0,0,1-2,.7,2.2,2.2,0,0,1-1.72-.62,4.71,4.71,0,0,1-.92-1.7,3.8,3.8,0,0,0-2.3-2.7,15.17,15.17,0,0,0-5.62-.78h-6.56c-3.68-.06-6.24.62-7.66,2s-2.14,4-2.14,7.7v9.12q0,5.52,2.14,7.66c1.42,1.42,4,2.14,7.66,2.14h6.56a15.17,15.17,0,0,0,5.62-.78,3.8,3.8,0,0,0,2.3-2.7,4.06,4.06,0,0,1,.94-1.74,2.33,2.33,0,0,1,1.74-.58,2.71,2.71,0,0,1,2,.68,2.05,2.05,0,0,1,.46,2,8.68,8.68,0,0,1-3.92,6.18c-2.14,1.34-5.18,2-9.12,2Z"/><path class="cls-2" d="M1713,364.4q-5.45,0-8.06-2.64t-2.62-8.12a2.52,2.52,0,0,1,5,0c0,2.24.38,3.75,1.16,4.54s2.26,1.18,4.48,1.18h14.4c2.21,0,3.7-.4,4.48-1.18s1.16-2.3,1.16-4.54V342.92a11.51,11.51,0,0,1-5.64,4.36,23.57,23.57,0,0,1-7.68,1.16h-2.8q-7.56,0-11.08-3.52t-3.52-11V312.16a2.52,2.52,0,1,1,5,0v21.76c0,3.6.68,6.08,2.06,7.44s3.87,2,7.5,2h2.8q6.87,0,10.1-2.36c2.14-1.58,3.22-4,3.22-7.12V312.16a2.52,2.52,0,1,1,5,0v41.48c0,3.65-.88,6.36-2.62,8.12s-4.44,2.64-8.06,2.64Z"/></g></g></svg>